<svg width="77.894531" height="20.824219" viewBox="0 0 77.8945 20.8242" fill="none" xmlns="http://www.w3.org/2000/svg" xmlns:xlink="http://www.w3.org/1999/xlink">
	<desc>
			Created with Pixso.
	</desc>
	<defs/>
	<path id="ALTYN" d="M16.2656 9.16406L16.2656 9.38672C16.25 10.043 16.1797 10.7227 16.0547 11.4258C15.9375 12.1289 15.7695 12.832 15.5508 13.5352C15.332 14.2383 15.0703 14.9336 14.7656 15.6211C14.4609 16.3086 14.1172 16.9648 13.7344 17.5898C13.3594 18.2227 12.9531 18.8125 12.5156 19.3594C12.0781 19.9141 11.6172 20.4023 11.1328 20.8242L9.38672 19.8164C9.66016 19.3555 9.90625 18.8516 10.125 18.3047C10.3516 17.7656 10.5547 17.1992 10.7344 16.6055C10.9141 16.0117 11.0664 15.4023 11.1914 14.7773C11.3242 14.1523 11.4336 13.5312 11.5195 12.9141C11.6055 12.2969 11.668 11.6914 11.707 11.0977C11.7539 10.4961 11.7773 9.92578 11.7773 9.38672C11.7773 8.96484 11.7734 8.48828 11.7656 7.95703C11.7656 7.41797 11.7344 6.87109 11.6719 6.31641C11.6172 5.76172 11.5234 5.22266 11.3906 4.69922C11.2578 4.16797 11.0586 3.69531 10.793 3.28125C10.5352 2.86719 10.1992 2.53516 9.78516 2.28516C9.37891 2.03516 8.87109 1.91016 8.26172 1.91016C7.72266 1.91016 7.25781 2.00391 6.86719 2.19141C6.48438 2.37109 6.15625 2.61719 5.88281 2.92969C5.61719 3.23438 5.40234 3.58984 5.23828 3.99609C5.08203 4.40234 4.95703 4.83203 4.86328 5.28516C4.77734 5.73047 4.71875 6.18359 4.6875 6.64453C4.66406 7.09766 4.65234 7.52734 4.65234 7.93359L4.65234 11.2031L9.70312 11.2031L9.70312 13.1367L4.65234 13.1367L4.65234 17.2383L0 17.2383L0 8.66016C0 7.43359 0.195312 6.29297 0.585938 5.23828C0.976562 4.18359 1.52734 3.26953 2.23828 2.49609C2.95703 1.71484 3.81641 1.10547 4.81641 0.667969C5.82422 0.222656 6.94531 0 8.17969 0C9.01562 0 9.79688 0.121094 10.5234 0.363281C11.2578 0.597656 11.9258 0.925781 12.5273 1.34766C13.1289 1.76172 13.6641 2.25781 14.1328 2.83594C14.6094 3.40625 15.0039 4.03125 15.3164 4.71094C15.6367 5.39062 15.8789 6.10938 16.043 6.86719C16.207 7.625 16.2812 8.39062 16.2656 9.16406ZM31.418 17.2383L19.3008 17.2383L19.3008 0.363281L23.9531 0.363281L23.9531 15.0938L31.418 15.0938L31.418 17.2383ZM39.9258 17.2383L35.2734 17.2383L35.2734 2.51953L30.6797 2.51953L30.6797 0.363281L44.5195 0.363281L44.5195 2.51953L39.9258 2.51953L39.9258 17.2383ZM60.6094 0.363281L55.1484 10.1484L55.1484 17.2383L50.4961 17.2383L50.4961 10.4062L44.9766 0.363281L49.7227 0.363281L53.3906 8.84766L57.3281 0.363281L60.6094 0.363281ZM64.6289 17.2383L62.4727 17.2383L62.4727 0.363281L65.4961 0.363281L75.75 11.9531L75.75 0.363281L77.8945 0.363281L77.8945 17.2383L74.8711 17.2383L64.6289 5.66016L64.6289 17.2383Z" fill="#FFFFFF" fill-opacity="1.000000" fill-rule="evenodd"/>
</svg>
